<?xml version="1.0" encoding="iso-8859-1"?>
<!-- Generator: Adobe Illustrator 19.0.0, SVG Export Plug-In . SVG Version: 6.00 Build 0)  -->
<svg version="1.1" id="Capa_1" xmlns="http://www.w3.org/2000/svg" xmlns:xlink="http://www.w3.org/1999/xlink" x="0px" y="0px"
	 viewBox="0 0 368 368" style="enable-background:new 0 0 368 368;" xml:space="preserve">
<path style="fill:#CCE4FF;" d="M152,24v112c0,8.8-7.2,16-16,16H24c-8.8,0-16-7.2-16-16V24c0-8.8,7.2-16,16-16h112
	C144.8,8,152,15.2,152,24z"/>
<g>
	<path style="fill:#007AFF;" d="M136,0H24C10.768,0,0,10.768,0,24v112c0,13.232,10.768,24,24,24h112c13.232,0,24-10.768,24-24V24
		C160,10.768,149.232,0,136,0z M144,136c0,4.408-3.592,8-8,8H24c-4.408,0-8-3.592-8-8V24c0-4.408,3.592-8,8-8h112
		c4.408,0,8,3.592,8,8V136z"/>
	<path style="fill:#007AFF;" d="M344,0H232c-13.232,0-24,10.768-24,24v112c0,13.232,10.768,24,24,24h112c13.232,0,24-10.768,24-24
		V24C368,10.768,357.232,0,344,0z M352,136c0,4.408-3.584,8-8,8H232c-4.416,0-8-3.592-8-8V24c0-4.408,3.584-8,8-8h112
		c4.416,0,8,3.592,8,8V136z"/>
	<path style="fill:#007AFF;" d="M136,208H24c-13.232,0-24,10.768-24,24v112c0,13.232,10.768,24,24,24h112c13.232,0,24-10.768,24-24
		V232C160,218.768,149.232,208,136,208z M144,344c0,4.408-3.592,8-8,8H24c-4.408,0-8-3.592-8-8V232c0-4.408,3.592-8,8-8h112
		c4.408,0,8,3.592,8,8V344z"/>
	<path style="fill:#007AFF;" d="M344,208H232c-13.232,0-24,10.768-24,24v112c0,13.232,10.768,24,24,24h112c13.232,0,24-10.768,24-24
		V232C368,218.768,357.232,208,344,208z M352,344c0,4.408-3.584,8-8,8H232c-4.416,0-8-3.592-8-8V232c0-4.408,3.584-8,8-8h112
		c4.416,0,8,3.592,8,8V344z"/>
</g>
<g>
</g>
<g>
</g>
<g>
</g>
<g>
</g>
<g>
</g>
<g>
</g>
<g>
</g>
<g>
</g>
<g>
</g>
<g>
</g>
<g>
</g>
<g>
</g>
<g>
</g>
<g>
</g>
<g>
</g>
</svg>
