<svg id="Capa_1" enable-background="new 0 0 512 512" height="512" viewBox="0 0 512 512" width="512" xmlns="http://www.w3.org/2000/svg" xmlns:xlink="http://www.w3.org/1999/xlink"><linearGradient id="SVGID_1_" gradientUnits="userSpaceOnUse" x1="256" x2="256" y1="512" y2="0"><stop offset="0" stop-color="#5558ff"/><stop offset="1" stop-color="#00c0ff"/></linearGradient><g><g><path d="m181 45c0 8.284 6.716 15 15 15s15-6.716 15-15-6.716-15-15-15-15 6.716-15 15zm-120 0c0 8.284 6.716 15 15 15s15-6.716 15-15-6.716-15-15-15-15 6.716-15 15zm210 391c0 8.284 6.716 15 15 15h60c8.284 0 15-6.716 15-15s-6.716-15-15-15h-60c-8.284 0-15 6.716-15 15zm-150-391c0 8.284 6.716 15 15 15s15-6.716 15-15-6.716-15-15-15-15 6.716-15 15zm376-45c-8.287 0-466.509 0-482 0-8.284 0-15 6.716-15 15v361c0 8.284 6.716 15 15 15h76v106c0 8.284 6.716 15 15 15h300c8.284 0 15-6.716 15-15v-106h76c8.284 0 15-6.716 15-15v-361c0-8.284-6.716-15-15-15zm-467 30h46 60 60 159.188l-20 60h-305.188zm361 452h-270v-301h270zm91-121h-61v-195c0-8.284-6.716-15-15-15h-300c-8.284 0-15 6.716-15 15v195h-61v-241h316c6.457 0 12.188-4.131 14.23-10.257l26.582-79.743h95.188zm-316 90h60c8.284 0 15-6.716 15-15s-6.716-15-15-15h-60c-8.284 0-15 6.716-15 15s6.716 15 15 15zm135-195c0-24.813-20.187-45-45-45s-45 20.187-45 45 20.187 45 45 45 45-20.187 45-45zm-45 15c-8.271 0-15-6.729-15-15s6.729-15 15-15 15 6.729 15 15-6.729 15-15 15zm-60 120h120c8.284 0 15-6.716 15-15 0-41.355-33.645-75-75-75s-75 33.645-75 75c0 8.284 6.716 15 15 15zm60-60c19.556 0 36.239 12.539 42.43 30h-84.86c6.191-17.461 22.874-30 42.43-30z" fill="url(#SVGID_1_)"/></g></g></svg>