<svg height="512" viewBox="0 0 128 128" width="512" xmlns="http://www.w3.org/2000/svg"><g><path d="m6.306 35.4v75.9a10.391 10.391 0 0 0 10.394 10.394h99.151v-75.9h-99.151a10.391 10.391 0 0 1 -10.394-10.394z" fill="#f9cc4e"/><path d="m115.848 25.011v20.782h-99.148a10.391 10.391 0 0 1 -10.394-10.393 10.391 10.391 0 0 1 10.394-10.389z" fill="#f95050"/><path d="m121.694 96.2h-31.551a12.456 12.456 0 0 1 -12.456-12.457 12.456 12.456 0 0 1 12.456-12.456h31.551z" fill="#4ec4b5"/><circle cx="90.143" cy="83.743" fill="#f95050" r="5.154"/><path d="m24.514 45.793 39.486-39.487 39.486 39.487z" fill="#4ec4b5"/><g fill="#e2e8ed"><path d="m17 106.252a1.75 1.75 0 0 1 -1.75-1.75v-20.759a1.75 1.75 0 0 1 3.5 0v20.757a1.75 1.75 0 0 1 -1.75 1.752z"/><path d="m17 78.248a1.75 1.75 0 0 1 -1.75-1.75v-5.211a1.75 1.75 0 0 1 3.5 0v5.213a1.75 1.75 0 0 1 -1.75 1.748z"/><path d="m40.679 45.793 16.573-16.581a11.437 11.437 0 0 0 13.495 0l16.583 16.581h4.949l-20.2-20.2a1.748 1.748 0 0 0 -2.474 0 7.926 7.926 0 0 1 -11.208 0 1.8 1.8 0 0 0 -2.475 0l-20.022 20.025a1.7 1.7 0 0 0 -.142.175z"/></g></g></svg>